<svg width="64" height="65" viewBox="0 0 64 65" fill="none" xmlns="http://www.w3.org/2000/svg">
<path d="M14.7219 19.9882H21.1978C22.994 19.9882 24.44 21.4342 24.44 23.2304V36.1992C24.44 37.9954 22.994 39.4414 21.1978 39.4414H14.7219C12.9257 39.4414 11.4797 37.9954 11.4797 36.1992V23.2304C11.4797 21.4342 12.9257 19.9882 14.7219 19.9882Z" fill="black"/>
<path opacity="0.99" d="M55.7533 9.21039C57.5523 9.21039 59.0006 10.6587 59.0006 12.4577V46.8502C59.0006 48.6492 57.5523 50.0975 55.7533 50.0975C53.9543 50.0975 52.506 48.6492 52.506 46.8502V12.4577C52.506 10.6587 53.9543 9.21039 55.7533 9.21039Z" fill="black"/>
<path d="M55.7565 8.21265C53.4795 8.21265 51.6206 10.0299 51.5279 12.285C46.0592 15.0147 36.638 20.2019 25.2031 21.8848C24.6347 20.2104 23.062 18.9902 21.2011 18.9902H14.7264C12.5901 18.9902 10.8261 20.5937 10.5407 22.6543C6.76726 22.6657 3.99959 25.8948 3.99959 29.717C3.99959 33.5445 6.75303 36.7715 10.5407 36.7738C10.827 38.8343 12.5908 40.4418 14.7264 40.4418H21.2011C21.4218 40.4418 21.6381 40.4202 21.8496 40.3871L25.041 51.6022C25.425 52.9508 24.6691 54.308 23.3203 54.6921C21.9716 55.076 20.6144 54.3202 20.2304 52.9713L17.3338 42.7934C17.1824 42.263 16.6301 41.9554 16.0994 42.1059C15.5673 42.2565 15.2584 42.8104 15.41 43.3422L18.3085 53.5182C18.9863 55.8992 21.486 57.2919 23.8672 56.614C26.2481 55.9361 27.6409 53.4365 26.9629 51.0553L25.6074 46.2915C27.0244 45.9923 28.1418 45.5116 28.9806 44.8638C30.0345 44.0497 30.6299 42.9847 30.8751 41.9379C31.1533 40.7503 31.0261 39.6236 30.795 38.6683C39.7025 40.9112 46.9949 44.8801 51.5415 47.1489C51.6986 49.344 53.523 51.0943 55.7565 51.0943C58.0922 51.0943 60.0007 49.1858 60.0007 46.8501V24.6524C59.9987 24.1032 59.5538 23.6585 59.0046 23.6563C58.4515 23.6533 58.0008 24.0994 57.9987 24.6524V46.8501C57.9987 48.1124 57.0187 49.0943 55.7565 49.0943C54.4942 49.0943 53.5123 48.1124 53.5123 46.8501V12.4569C53.5123 11.1946 54.4942 10.2049 55.7565 10.2049C57.0187 10.2049 57.9987 11.1946 57.9987 12.4569V20.6504C57.9957 21.2073 58.4477 21.6596 59.0046 21.6563C59.5576 21.6543 60.0039 21.2035 60.0007 20.6504V12.4569C60.0007 10.1212 58.0922 8.21265 55.7565 8.21265L55.7565 8.21265ZM51.5083 14.496V44.9302C46.0311 42.1612 36.881 37.2885 25.4453 35.6077V23.8184C36.881 22.1376 46.0311 17.265 51.5083 14.496ZM14.7264 20.9844H21.2011C22.4472 20.9844 23.4207 21.9493 23.4414 23.1895V36.2366C23.421 37.4768 22.4472 38.4417 21.2011 38.4417H14.7264C13.4669 38.4417 12.4822 37.457 12.4822 36.1976V23.2286C12.4822 21.9691 13.4669 20.9844 14.7264 20.9844ZM10.4821 24.6427V34.7718C7.90696 34.7464 5.99963 32.566 5.99963 29.717C5.99963 26.854 7.89458 24.6472 10.4821 24.6427ZM25.1973 37.5609C26.3206 37.7262 27.4298 37.9174 28.5157 38.1468C28.8423 39.029 29.197 40.332 28.9278 41.4809C28.7712 42.1493 28.4513 42.7442 27.7579 43.2797C27.1974 43.7127 26.2628 44.0687 25.0469 44.3188C24.5979 42.7481 24.1503 41.177 23.7031 39.6058C24.3867 39.0953 24.9138 38.3841 25.1973 37.5609Z" fill="#424241"/>
<path d="M14.9993 28.7125C14.8673 28.712 14.7365 28.7376 14.6145 28.7879C14.4924 28.8382 14.3816 28.9121 14.2882 29.0054C14.1949 29.0988 14.121 29.2096 14.0707 29.3317C14.0204 29.4537 13.9948 29.5845 13.9953 29.7165C13.9958 29.8479 14.0221 29.9778 14.0728 30.099C14.1235 30.2202 14.1976 30.3302 14.2908 30.4228C14.3841 30.5153 14.4946 30.5886 14.6162 30.6384C14.7377 30.6882 14.8679 30.7136 14.9993 30.7131H20.964C21.0953 30.7136 21.2255 30.6882 21.3471 30.6384C21.4686 30.5886 21.5792 30.5153 21.6724 30.4228C21.7657 30.3302 21.8397 30.2202 21.8904 30.099C21.9411 29.9778 21.9675 29.8479 21.9679 29.7165C21.9685 29.5845 21.9428 29.4537 21.8926 29.3317C21.8423 29.2096 21.7684 29.0988 21.675 29.0054C21.5817 28.9121 21.4708 28.8382 21.3488 28.7879C21.2267 28.7376 21.096 28.712 20.964 28.7125H14.9993ZM14.9771 23.6928C14.8458 23.6922 14.7156 23.7176 14.594 23.7674C14.4725 23.8172 14.3619 23.8905 14.2687 23.983C14.1755 24.0756 14.1014 24.1856 14.0507 24.3068C14 24.428 13.9736 24.558 13.9732 24.6893C13.9727 24.8213 13.9983 24.9521 14.0485 25.0741C14.0988 25.1962 14.1727 25.3071 14.2661 25.4004C14.3594 25.4937 14.4703 25.5677 14.5923 25.6179C14.7144 25.6682 14.8452 25.6938 14.9771 25.6933H20.9492C21.0806 25.6928 21.2106 25.6665 21.3318 25.6158C21.4529 25.5651 21.5629 25.491 21.6555 25.3978C21.748 25.3045 21.8213 25.194 21.8711 25.0724C21.9209 24.9509 21.9463 24.8207 21.9458 24.6893C21.9449 24.4253 21.8396 24.1723 21.6529 23.9856C21.4662 23.7989 21.2132 23.6937 20.9492 23.6928H14.9771ZM14.9771 33.7397C14.8458 33.7392 14.7156 33.7646 14.594 33.8144C14.4725 33.8642 14.3619 33.9374 14.2687 34.03C14.1755 34.1225 14.1014 34.2325 14.0507 34.3537C14 34.4749 13.9736 34.6049 13.9732 34.7363C13.9727 34.8683 13.9983 34.9991 14.0485 35.1211C14.0988 35.2431 14.1727 35.354 14.2661 35.4473C14.3594 35.5407 14.4703 35.6146 14.5923 35.6649C14.7144 35.7151 14.8452 35.7408 14.9771 35.7402H20.9492C21.0806 35.7398 21.2106 35.7135 21.3318 35.6627C21.4529 35.612 21.5629 35.538 21.6555 35.4447C21.748 35.3515 21.8213 35.2409 21.8711 35.1194C21.9209 34.9978 21.9463 34.8676 21.9458 34.7363C21.9449 34.4723 21.8396 34.2193 21.6529 34.0326C21.4662 33.8459 21.2132 33.7406 20.9492 33.7397H14.9771Z" fill="#424241"/>
</svg>
