<svg width="64" height="65" viewBox="0 0 64 65" fill="none" xmlns="http://www.w3.org/2000/svg">
<path d="M34.8323 56.8952C34.8323 57.2676 34.759 57.6363 34.6165 57.9803C34.474 58.3244 34.2651 58.6369 34.0018 58.9003C33.7385 59.1636 33.4259 59.3724 33.0819 59.5149C32.7379 59.6574 32.3691 59.7308 31.9968 59.7308C31.2447 59.7308 30.5235 59.432 29.9917 58.9003C29.46 58.3685 29.1612 57.6472 29.1612 56.8952C29.1612 56.1432 29.46 55.4219 29.9917 54.8902C30.5235 54.3584 31.2447 54.0597 31.9968 54.0597C32.3691 54.0597 32.7379 54.133 33.0819 54.2755C33.4259 54.418 33.7385 54.6269 34.0018 54.8902C34.2651 55.1535 34.474 55.4661 34.6165 55.8101C34.759 56.1541 34.8323 56.5228 34.8323 56.8952ZM38.9139 47.44L44.5292 58.4735C45.0319 59.4609 46.2313 59.8512 47.2187 59.3485C48.2062 58.8458 48.5965 57.6444 48.0938 56.657L43.4023 47.44L38.9139 47.44ZM20.601 47.44L15.9095 56.657C15.4068 57.6444 15.7971 58.8458 16.7845 59.3485C17.772 59.8512 18.9714 59.4609 19.4741 58.4735L25.0894 47.44H20.601Z" fill="black"/>
<path d="M7.00114 5.43921H57.0021C58.1101 5.43921 59.0022 6.33123 59.0022 7.43925C59.0022 8.54727 58.1101 9.43929 57.0021 9.43929H7.00114C5.89312 9.43929 5.0011 8.54727 5.0011 7.43925C5.0011 6.33123 5.89312 5.43921 7.00114 5.43921Z" fill="black"/>
<path d="M27.4016 31.167H31.0016V41.5308H27.4016V31.167ZM20.2014 33.167H23.8015V41.5308H20.2014V33.167ZM13.0013 35.1671H16.6014V41.5308H13.0013V35.1671Z" fill="black"/>
<path d="M6.99822 4.44044C5.35349 4.44044 4.00208 5.79185 4.00208 7.43659C4.00208 9.08133 5.35349 10.4406 6.99822 10.4406V23.4389C6.99822 23.9912 7.44595 24.4389 7.99824 24.4389C8.55053 24.4389 8.99826 23.9912 8.99826 23.4389V10.4406H54.9992V46.4354H8.99826V27.4389C8.99826 26.8866 8.55053 26.4389 7.99824 26.4389C7.44595 26.4389 6.99822 26.8866 6.99822 27.4389V46.4354H4.9982C4.86687 46.4359 4.73693 46.4623 4.6158 46.513C4.49467 46.5638 4.38471 46.6378 4.29222 46.7311C4.19972 46.8243 4.12649 46.9348 4.07671 47.0563C4.02693 47.1779 4.00157 47.308 4.00208 47.4393C4.00311 47.7032 4.10839 47.956 4.29497 48.1426C4.48156 48.3291 4.73433 48.4344 4.9982 48.4354H19.018L15.016 56.2032C14.2695 57.6693 14.8619 59.4918 16.3285 60.2384C17.7942 60.9846 19.6156 60.3915 20.3618 58.9259L25.7017 48.4354H30.9968V53.6992C29.6011 54.1355 28.569 55.4324 28.569 56.963C28.569 58.8446 30.121 60.3888 32.0026 60.3888C33.8843 60.3888 35.4265 58.8446 35.4265 56.963C35.4265 55.4302 34.3956 54.1316 32.9987 53.6973V48.4354H38.2957L43.6357 58.9259C44.3818 60.3915 46.2033 60.9846 47.669 60.2384C49.1355 59.4918 49.7279 57.6693 48.9815 56.2032L44.8388 48.4354H58.9973C59.1286 48.436 59.2588 48.4106 59.3803 48.3608C59.5018 48.311 59.6123 48.2378 59.7056 48.1453C59.7988 48.0528 59.8729 47.9429 59.9236 47.8217C59.9743 47.7006 60.0007 47.5707 60.0012 47.4393C60.0017 47.3074 59.9761 47.1766 59.9259 47.0545C59.8756 46.9325 59.8017 46.8216 59.7083 46.7283C59.615 46.635 59.5041 46.561 59.3821 46.5108C59.2601 46.4605 59.1293 46.4349 58.9973 46.4354H56.9992V10.4406C58.6431 10.4395 60.0012 9.08066 60.0012 7.43659C60.0012 5.79185 58.642 4.44044 56.9973 4.44044H48.7666C48.2143 4.43828 47.7649 4.88425 47.7627 5.43655C47.7607 5.9919 48.2113 6.44265 48.7666 6.44048H56.9973C57.5686 6.44048 58.0012 6.86528 58.0012 7.43659C58.0012 8.0079 57.5686 8.44052 56.9973 8.44052H6.99822C6.42692 8.44052 5.9943 8.0079 5.9943 7.43659C5.9943 6.86528 6.42692 6.44048 6.99822 6.44048H44.7646C45.32 6.44266 45.7707 5.9919 45.7685 5.43655C45.7665 4.88425 45.3169 4.43827 44.7646 4.44044H6.99822ZM45.0009 14.3469C41.1467 14.3469 37.9949 17.4908 37.9949 21.3451C37.9949 25.1993 41.1467 28.3491 45.0009 28.3491C48.8552 28.3491 51.9991 25.1993 51.9991 21.3451C51.9991 17.4908 48.8552 14.3469 45.0009 14.3469ZM12.9983 15.4133C12.7265 15.4135 12.4658 15.5217 12.2735 15.7139C12.0813 15.9062 11.9732 16.1668 11.9729 16.4387C11.9732 16.7106 12.0813 16.9713 12.2735 17.1635C12.4658 17.3558 12.7265 17.4639 12.9983 17.4641C13.2702 17.4639 13.5309 17.3558 13.7232 17.1635C13.9154 16.9713 14.0235 16.7106 14.0238 16.4387C14.0235 16.1668 13.9154 15.9062 13.7232 15.7139C13.5309 15.5217 13.2702 15.4135 12.9983 15.4133ZM17.0023 15.4387C16.8708 15.4379 16.7405 15.4631 16.6187 15.5128C16.497 15.5624 16.3862 15.6356 16.2928 15.7282C16.1994 15.8207 16.1251 15.9307 16.0743 16.052C16.0234 16.1732 15.997 16.3033 15.9964 16.4348C15.9959 16.567 16.0216 16.6979 16.072 16.8201C16.1224 16.9422 16.1965 17.0532 16.29 17.1466C16.3836 17.2399 16.4947 17.3138 16.6169 17.3639C16.7392 17.4141 16.8702 17.4395 17.0023 17.4387H34.9988C35.1301 17.4382 35.26 17.4119 35.3812 17.3611C35.5023 17.3104 35.6123 17.2363 35.7048 17.1431C35.7973 17.0499 35.8705 16.9393 35.9203 16.8178C35.9701 16.6963 35.9954 16.5661 35.9949 16.4348C35.9939 16.1709 35.8886 15.9182 35.702 15.7316C35.5154 15.545 35.2627 15.4397 34.9988 15.4387L17.0023 15.4387ZM43.997 16.4465V21.0423L41.4501 24.8744C40.5518 23.9707 39.9969 22.7262 39.9969 21.3451C39.9969 18.9157 41.708 16.9072 43.997 16.4465ZM45.9971 16.4465C47.9663 16.84 49.5053 18.3781 49.8995 20.347H45.9971V16.4465ZM12.9983 20.4134C12.7265 20.4137 12.4658 20.5218 12.2735 20.714C12.0813 20.9063 11.9732 21.1669 11.9729 21.4388C11.9732 21.7107 12.0813 21.9714 12.2735 22.1636C12.4658 22.3559 12.7265 22.464 12.9983 22.4642C13.2702 22.464 13.5309 22.3559 13.7232 22.1636C13.9154 21.9714 14.0235 21.7107 14.0238 21.4388C14.0235 21.1669 13.9154 20.9063 13.7232 20.714C13.5309 20.5218 13.2702 20.4137 12.9983 20.4134ZM17.0023 20.4368C16.8702 20.4361 16.7392 20.4615 16.6169 20.5117C16.4947 20.5618 16.3836 20.6357 16.29 20.729C16.1965 20.8224 16.1224 20.9334 16.072 21.0555C16.0216 21.1777 15.9959 21.3086 15.9964 21.4408C15.997 21.5723 16.0234 21.7024 16.0743 21.8236C16.1251 21.9449 16.1994 22.0549 16.2928 22.1474C16.3862 22.24 16.497 22.3132 16.6187 22.3628C16.7405 22.4125 16.8708 22.4377 17.0023 22.4369H26.9967C27.128 22.4374 27.2581 22.412 27.3797 22.3623C27.5012 22.3125 27.6117 22.2392 27.7049 22.1468C27.7982 22.0543 27.8722 21.9443 27.923 21.8232C27.9737 21.702 28.0001 21.5721 28.0006 21.4408C28.0011 21.3088 27.9755 21.178 27.9252 21.056C27.875 20.9339 27.801 20.8231 27.7077 20.7297C27.6144 20.6364 27.5035 20.5625 27.3815 20.5122C27.2594 20.4619 27.1287 20.4363 26.9967 20.4368L17.0023 20.4368ZM45.5341 22.349H49.8975C49.436 24.6369 47.4296 26.3491 45.0009 26.3491C44.3313 26.3491 43.6968 26.2124 43.1142 25.976L45.5341 22.349ZM12.9983 25.4135C12.7265 25.4137 12.4658 25.5219 12.2735 25.7141C12.0813 25.9064 11.9732 26.167 11.9729 26.4389C11.9732 26.7108 12.0813 26.9715 12.2735 27.1637C12.4658 27.356 12.7265 27.4641 12.9983 27.4643C13.2702 27.4641 13.5309 27.356 13.7232 27.1637C13.9154 26.9715 14.0235 26.7108 14.0238 26.4389C14.0235 26.167 13.9154 25.9064 13.7232 25.7141C13.5309 25.5219 13.2702 25.4137 12.9983 25.4135ZM17.0023 25.4408C16.8708 25.4401 16.7405 25.4652 16.6187 25.5149C16.497 25.5646 16.3862 25.6378 16.2928 25.7303C16.1994 25.8228 16.1251 25.9328 16.0743 26.0541C16.0234 26.1754 15.997 26.3055 15.9964 26.4369C15.9957 26.5693 16.0212 26.7004 16.0714 26.8228C16.1217 26.9452 16.1958 27.0564 16.2893 27.1499C16.3829 27.2435 16.4941 27.3176 16.6165 27.3678C16.7389 27.4181 16.87 27.4436 17.0023 27.4428H34.9988C35.1303 27.4423 35.2604 27.4159 35.3816 27.365C35.5029 27.3142 35.6129 27.2399 35.7054 27.1465C35.798 27.0531 35.8712 26.9423 35.9208 26.8205C35.9705 26.6988 35.9957 26.5685 35.9949 26.437C35.9939 26.1731 35.8886 25.9203 35.702 25.7337C35.5154 25.5472 35.2627 25.4419 34.9988 25.4409L17.0023 25.4408ZM27.3951 30.1655C27.1299 30.1666 26.876 30.273 26.6892 30.4612C26.5024 30.6495 26.398 30.9042 26.399 31.1695V41.5271C26.398 41.7923 26.5024 42.0471 26.6892 42.2353C26.876 42.4236 27.1299 42.53 27.3951 42.531H30.9968C31.1289 42.5318 31.2599 42.5063 31.3821 42.4562C31.5044 42.406 31.6155 42.3321 31.709 42.2388C31.8026 42.1454 31.8767 42.0345 31.9271 41.9123C31.9774 41.7902 32.0031 41.6592 32.0026 41.5271V31.1695C32.0031 31.0373 31.9774 30.9064 31.9271 30.7842C31.8767 30.6621 31.8026 30.5511 31.709 30.4578C31.6155 30.3644 31.5044 30.2905 31.3821 30.2404C31.2599 30.1902 31.1289 30.1648 30.9968 30.1656L27.3951 30.1655ZM36.9988 30.4136C36.7269 30.4138 36.4663 30.5219 36.274 30.7142C36.0818 30.9064 35.9736 31.1671 35.9734 31.439C35.9736 31.7109 36.0818 31.9716 36.274 32.1638C36.4663 32.3561 36.7269 32.4642 36.9988 32.4644C37.2707 32.4642 37.5314 32.3561 37.7236 32.1638C37.9159 31.9716 38.024 31.7109 38.0242 31.439C38.024 31.1671 37.9159 30.9064 37.7236 30.7142C37.5314 30.5219 37.2707 30.4138 36.9988 30.4136ZM41.0009 30.439C40.8695 30.4385 40.7394 30.4638 40.6179 30.5136C40.4963 30.5634 40.3858 30.6366 40.2926 30.7291C40.1994 30.8216 40.1253 30.9316 40.0745 31.0527C40.0238 31.1738 39.9974 31.3038 39.9969 31.4351C39.9964 31.5671 40.022 31.6979 40.0723 31.8199C40.1226 31.9419 40.1965 32.0528 40.2898 32.1461C40.3831 32.2395 40.494 32.3134 40.6161 32.3637C40.7381 32.4139 40.8689 32.4395 41.0009 32.439H45.0009C45.1323 32.4385 45.2622 32.4121 45.3833 32.3614C45.5045 32.3107 45.6144 32.2366 45.7069 32.1434C45.7994 32.0502 45.8726 31.9396 45.9224 31.8181C45.9722 31.6966 45.9976 31.5664 45.9971 31.4351C45.996 31.1712 45.8907 30.9185 45.7042 30.7319C45.5176 30.5453 45.2648 30.44 45.0009 30.439L41.0009 30.439ZM20.1977 32.1656C19.9335 32.1667 19.6805 32.2722 19.4938 32.4592C19.3072 32.6462 19.2021 32.8995 19.2016 33.1637V41.5271C19.2006 41.7923 19.305 42.0471 19.4918 42.2353C19.6786 42.4236 19.9325 42.53 20.1977 42.531H23.7993C23.9308 42.5308 24.061 42.5046 24.1823 42.454C24.3037 42.4033 24.4138 42.3293 24.5065 42.236C24.5993 42.1428 24.6727 42.0322 24.7226 41.9105C24.7725 41.7889 24.7979 41.6586 24.7974 41.5271V33.1637C24.7969 32.8991 24.6915 32.6456 24.5045 32.4585C24.3174 32.2715 24.0639 32.1661 23.7993 32.1656H20.1977ZM28.399 32.1656H30.0006V40.531H28.399V32.1656ZM13.0003 34.1676C12.7351 34.1666 12.4803 34.271 12.2921 34.4578C12.1038 34.6446 11.9974 34.8985 11.9964 35.1637V41.5271C11.9959 41.6591 12.0215 41.7899 12.0718 41.9119C12.122 42.0339 12.196 42.1448 12.2893 42.2381C12.3826 42.3314 12.4935 42.4054 12.6155 42.4556C12.7375 42.5059 12.8683 42.5315 13.0003 42.531H16.5961C16.7281 42.5315 16.8588 42.5059 16.9809 42.4556C17.1029 42.4054 17.2138 42.3314 17.3071 42.2381C17.4004 42.1448 17.4743 42.0339 17.5246 41.9119C17.5749 41.7899 17.6005 41.6591 17.6 41.5271V35.1637C17.5989 34.8985 17.4926 34.6446 17.3043 34.4578C17.116 34.271 16.8613 34.1666 16.5961 34.1676H13.0003ZM21.2016 34.1676H22.7954V40.531H21.2016V34.1676ZM36.9988 35.4137C36.7269 35.4139 36.4663 35.5221 36.274 35.7143C36.0818 35.9066 35.9736 36.1672 35.9734 36.4391C35.9736 36.711 36.0818 36.9717 36.274 37.1639C36.4663 37.3562 36.7269 37.4643 36.9988 37.4645C37.2707 37.4643 37.5314 37.3562 37.7236 37.1639C37.9159 36.9717 38.024 36.711 38.0242 36.4391C38.024 36.1672 37.9159 35.9066 37.7236 35.7143C37.5314 35.522 37.2707 35.4139 36.9988 35.4137ZM41.0009 35.4371C40.8689 35.4366 40.7381 35.4622 40.6161 35.5125C40.494 35.5628 40.3831 35.6367 40.2898 35.73C40.1965 35.8234 40.1226 35.9342 40.0723 36.0563C40.022 36.1783 39.9964 36.3091 39.9969 36.4411C39.9974 36.5724 40.0238 36.7023 40.0745 36.8235C40.1253 36.9446 40.1994 37.0546 40.2926 37.147C40.3858 37.2395 40.4963 37.3128 40.6179 37.3626C40.7394 37.4123 40.8695 37.4377 41.0009 37.4372H50.9952C51.1265 37.4377 51.2567 37.4123 51.3782 37.3626C51.4997 37.3128 51.6102 37.2396 51.7035 37.1471C51.7967 37.0546 51.8708 36.9446 51.9215 36.8235C51.9722 36.7023 51.9986 36.5724 51.9991 36.4411C51.9996 36.3091 51.974 36.1783 51.9237 36.0563C51.8735 35.9342 51.7995 35.8234 51.7062 35.73C51.6129 35.6367 51.502 35.5628 51.38 35.5125C51.2579 35.4622 51.1272 35.4366 50.9952 35.4371L41.0009 35.4371ZM13.9964 36.1676H15.598V40.531H13.9964V36.1676ZM36.9988 40.4138C36.7269 40.414 36.4663 40.5221 36.274 40.7144C36.0818 40.9066 35.9736 41.1673 35.9734 41.4392C35.9736 41.7111 36.0818 41.9718 36.274 42.164C36.4663 42.3563 36.7269 42.4644 36.9988 42.4646C37.2707 42.4644 37.5314 42.3563 37.7236 42.164C37.9159 41.9718 38.024 41.7111 38.0242 41.4392C38.024 41.1673 37.9159 40.9066 37.7236 40.7144C37.5314 40.5221 37.2707 40.414 36.9988 40.4138ZM41.0009 40.441C40.8695 40.4405 40.7394 40.4659 40.6179 40.5156C40.4963 40.5654 40.3858 40.6386 40.2926 40.7311C40.1994 40.8236 40.1253 40.9336 40.0745 41.0547C40.0238 41.1759 39.9974 41.3058 39.9969 41.4371C39.9962 41.5693 40.0216 41.7003 40.0717 41.8225C40.1219 41.9448 40.1958 42.0559 40.2891 42.1494C40.3825 42.243 40.4934 42.3171 40.6156 42.3675C40.7378 42.4178 40.8687 42.4435 41.0009 42.443H45.0009C45.1324 42.4425 45.2625 42.4161 45.3838 42.3652C45.505 42.3144 45.6151 42.2401 45.7076 42.1467C45.8001 42.0532 45.8733 41.9425 45.923 41.8207C45.9727 41.699 45.9978 41.5686 45.9971 41.4371C45.996 41.1733 45.8907 40.9205 45.7042 40.7339C45.5176 40.5473 45.2648 40.442 45.0009 40.441H41.0009ZM21.2094 48.4392H23.4556L18.5805 58.0195C18.3212 58.5287 17.7439 58.7162 17.2348 58.457C16.7264 58.1982 16.5383 57.618 16.7973 57.1093L21.2094 48.4392ZM40.5419 48.4392H42.786L47.2002 57.1093C47.4592 57.618 47.271 58.1982 46.7627 58.457C46.2535 58.7162 45.6762 58.5287 45.417 58.0195L40.5419 48.4392ZM32.0026 55.5312C32.8034 55.5312 33.4265 56.1621 33.4265 56.9628C33.4265 57.7635 32.8034 58.3867 32.0026 58.3867C31.2019 58.3867 30.569 57.7635 30.569 56.9628C30.569 56.1621 31.2019 55.5312 32.0026 55.5312Z" fill="#424241"/>
</svg>
