<svg width="64" height="65" viewBox="0 0 64 65" fill="none" xmlns="http://www.w3.org/2000/svg">
<path opacity="0.99" d="M47.0351 28.5103C52.2456 28.5103 56.4542 32.9636 56.4542 37.9293V45.2503H37.6099V37.9293C37.6099 32.9636 41.8247 28.5103 47.0351 28.5103ZM43.5232 51.4312H50.5429C50.1184 53.3728 48.7508 54.8143 47.0331 54.8144C45.3153 54.8143 43.9477 53.3728 43.5232 51.4312Z" fill="black"/>
<path d="M11.8562 11.9307H15.3816C15.8921 11.9307 16.303 12.3416 16.303 12.8521V16.0678C16.303 16.5782 15.8921 16.9892 15.3816 16.9892H11.8562C11.3457 16.9892 10.9348 16.5782 10.9348 16.0678V12.8521C10.9348 12.3416 11.3457 11.9307 11.8562 11.9307ZM11.8562 23.9018H15.3816C15.8921 23.9018 16.303 24.3127 16.303 24.8231V28.0389C16.303 28.5493 15.8921 28.9602 15.3816 28.9602H11.8562C11.3457 28.9602 10.9348 28.5493 10.9348 28.0389V24.8231C10.9348 24.3127 11.3457 23.9018 11.8562 23.9018ZM11.8562 36.547H15.3816C15.8921 36.547 16.303 36.9579 16.303 37.4683V40.684C16.303 41.1945 15.8921 41.6054 15.3816 41.6054H11.8562C11.3457 41.6054 10.9348 41.1945 10.9348 40.684V37.4683C10.9348 36.9579 11.3457 36.547 11.8562 36.547ZM11.8562 48.4139H15.3816C15.8921 48.4139 16.303 48.8248 16.303 49.3352V52.551C16.303 53.0614 15.8921 53.4723 15.3816 53.4723H11.8562C11.3457 53.4723 10.9348 53.0614 10.9348 52.551V49.3352C10.9348 48.8248 11.3457 48.4139 11.8562 48.4139Z" fill="black"/>
<path opacity="0.99" d="M7.05182 4.49872C5.41729 4.49872 4.05176 5.82713 4.05176 7.46166V57.5369C4.05176 59.1714 5.41729 60.4998 7.05182 60.4998H46.1151C47.4013 60.4998 47.4526 58.4998 46.035 58.4998H7.05182C6.4703 58.4998 6.0518 58.0781 6.0518 57.5369V7.46166C6.0518 6.92044 6.4703 6.49875 7.05182 6.49875H36.9958V12.1571C36.9958 14.2696 38.7231 15.995 40.8357 15.995H46.1073L46.0975 19.6728C46.0975 21.0311 48.0975 21.0307 48.0975 19.6766L48.1111 14.8289C48.1116 14.5668 48.0092 14.315 47.8259 14.1277L38.7086 4.79938C38.5205 4.60703 38.2628 4.49863 37.9937 4.4986L7.05182 4.49872ZM38.99 7.94996L44.8983 13.995H40.8357C39.7966 13.995 38.99 13.1962 38.99 12.1571V7.94996ZM11.0773 10.9461C10.9458 10.9456 10.8155 10.971 10.6939 11.0209C10.5722 11.0709 10.4616 11.1443 10.3684 11.237C10.2751 11.3297 10.2011 11.4398 10.1504 11.5612C10.0998 11.6825 10.0736 11.8127 10.0734 11.9442V16.9931C10.0729 17.1251 10.0985 17.2559 10.1488 17.3779C10.199 17.4999 10.273 17.6108 10.3663 17.7041C10.4596 17.7974 10.5705 17.8714 10.6925 17.9216C10.8145 17.9719 10.9453 17.9975 11.0773 17.997H16.1282C16.2601 17.9975 16.3909 17.9719 16.513 17.9216C16.635 17.8714 16.7458 17.7974 16.8392 17.7041C16.9325 17.6108 17.0064 17.4999 17.0567 17.3779C17.107 17.2559 17.1326 17.1251 17.1321 16.9931V11.9442C17.1318 11.8127 17.1056 11.6825 17.055 11.5612C17.0044 11.4398 16.9303 11.3297 16.8371 11.237C16.7439 11.1443 16.6332 11.0709 16.5116 11.0209C16.3899 10.971 16.2597 10.9456 16.1282 10.9461H11.0773ZM21.5384 11.0575C21.2746 11.0585 21.0218 11.1638 20.8352 11.3503C20.6486 11.5369 20.5433 11.7897 20.5423 12.0536C20.5433 12.3174 20.6486 12.5702 20.8352 12.7568C21.0218 12.9434 21.2746 13.0487 21.5384 13.0497H26.0483C26.1796 13.0502 26.3097 13.0248 26.4313 12.9751C26.5528 12.9253 26.6633 12.852 26.7566 12.7595C26.8498 12.667 26.9239 12.5571 26.9746 12.436C27.0253 12.3148 27.0517 12.1849 27.0522 12.0536C27.0517 11.9222 27.0253 11.7923 26.9746 11.6712C26.9239 11.55 26.8498 11.4401 26.7566 11.3476C26.6633 11.2551 26.5528 11.1819 26.4313 11.1321C26.3097 11.0823 26.1796 11.0569 26.0483 11.0575H21.5384ZM12.0754 12.9481H15.1301V15.9951H12.0754V12.9481ZM21.5384 15.8857C21.4071 15.8862 21.2772 15.9126 21.156 15.9633C21.0349 16.014 20.9249 16.0881 20.8325 16.1813C20.74 16.2746 20.6667 16.3851 20.6169 16.5066C20.5672 16.6281 20.5418 16.7583 20.5423 16.8896C20.5433 17.1535 20.6486 17.4062 20.8352 17.5928C21.0218 17.7794 21.2746 17.8847 21.5384 17.8857H31.0542C31.3181 17.8847 31.5709 17.7794 31.7575 17.5928C31.9441 17.4062 32.0493 17.1535 32.0504 16.8896C32.0509 16.7583 32.0255 16.6281 31.9757 16.5066C31.926 16.3851 31.8527 16.2746 31.7602 16.1813C31.6677 16.0881 31.5578 16.014 31.4366 15.9633C31.3155 15.9126 31.1856 15.8862 31.0542 15.8857H21.5384ZM47.035 22.7217C45.3911 22.7217 44.0389 24.0817 44.0389 25.7257V27.3058C39.396 28.6526 36.0153 33.0109 36.0153 37.8842V45.2534C34.8856 45.8267 34.109 47.0212 34.109 48.3805V50.8844C34.111 51.4344 34.5571 51.8794 35.1071 51.8805H41.7673C42.1824 54.4129 44.3879 56.363 47.0331 56.363C49.6783 56.363 51.8838 54.413 52.2988 51.8805H58.9571C59.5071 51.8794 59.953 51.4344 59.9552 50.8844V48.3804C59.9552 47.0212 59.1786 45.8267 58.0489 45.2534V37.8841C58.0489 33.0087 54.6698 28.6484 50.0253 27.3039V25.7257C50.0253 24.0816 48.679 22.7217 47.035 22.7217V22.7217ZM11.0773 22.8311C10.9453 22.8306 10.8145 22.8563 10.6925 22.9065C10.5705 22.9568 10.4596 23.0307 10.3663 23.1241C10.273 23.2174 10.199 23.3282 10.1488 23.4503C10.0985 23.5723 10.0729 23.7031 10.0734 23.8351V28.8859C10.0729 29.0179 10.0985 29.1487 10.1488 29.2707C10.199 29.3927 10.273 29.5036 10.3663 29.5969C10.4596 29.6903 10.5705 29.7642 10.6925 29.8145C10.8145 29.8647 10.9453 29.8904 11.0773 29.8899H16.1282C16.2601 29.8904 16.3909 29.8647 16.513 29.8145C16.635 29.7642 16.7458 29.6903 16.8392 29.5969C16.9325 29.5036 17.0064 29.3927 17.0567 29.2707C17.107 29.1487 17.1326 29.0179 17.1321 28.8859V23.8351C17.1326 23.7031 17.107 23.5723 17.0567 23.4503C17.0064 23.3282 16.9325 23.2174 16.8392 23.1241C16.7458 23.0307 16.635 22.9568 16.513 22.9065C16.3909 22.8563 16.2601 22.8306 16.1282 22.8311H11.0773ZM21.5384 22.9425C21.4071 22.943 21.2772 22.9694 21.156 23.0201C21.0349 23.0708 20.9249 23.1449 20.8325 23.2381C20.74 23.3314 20.6667 23.4419 20.6169 23.5634C20.5672 23.6849 20.5418 23.8151 20.5423 23.9464C20.5433 24.2103 20.6486 24.463 20.8352 24.6496C21.0218 24.8362 21.2746 24.9415 21.5384 24.9425H26.0483C26.1796 24.943 26.3097 24.9177 26.4313 24.8679C26.5528 24.8181 26.6633 24.7449 26.7566 24.6524C26.8498 24.5599 26.9239 24.4499 26.9746 24.3288C27.0253 24.2077 27.0517 24.0777 27.0522 23.9464C27.0527 23.8144 27.0271 23.6836 26.9768 23.5616C26.9266 23.4396 26.8526 23.3287 26.7593 23.2354C26.666 23.142 26.5551 23.0681 26.4331 23.0178C26.311 22.9676 26.1803 22.942 26.0483 22.9425H21.5384ZM47.035 24.7218C47.6029 24.7218 48.0331 25.1522 48.0331 25.7257V26.9211C47.7044 26.8905 47.3717 26.8703 47.035 26.8703C46.6984 26.8703 46.3676 26.8907 46.0389 26.9211V25.7257C46.0389 25.1522 46.4672 24.7218 47.035 24.7218ZM12.0754 24.8332H15.1301V27.8879H12.0754V24.8332ZM21.5384 27.7785C21.2746 27.7796 21.0218 27.8848 20.8352 28.0714C20.6486 28.258 20.5433 28.5108 20.5423 28.7746C20.5418 28.906 20.5672 29.0361 20.6169 29.1576C20.6667 29.2792 20.74 29.3897 20.8325 29.4829C20.9249 29.5761 21.0349 29.6502 21.156 29.701C21.2772 29.7517 21.4071 29.7781 21.5384 29.7786H31.0542C31.1856 29.7781 31.3155 29.7517 31.4366 29.701C31.5578 29.6502 31.6677 29.5761 31.7602 29.4829C31.8527 29.3897 31.926 29.2792 31.9757 29.1576C32.0255 29.0361 32.0509 28.906 32.0504 28.7746C32.0493 28.5108 31.9441 28.258 31.7575 28.0714C31.5709 27.8848 31.3181 27.7796 31.0542 27.7785H21.5384ZM47.035 28.8703C52.0213 28.8703 56.0489 33.1321 56.0489 37.8842V44.8902H38.0153V37.8842C38.0153 33.1321 42.0487 28.8703 47.035 28.8703ZM11.0773 35.4916C10.8121 35.4906 10.5573 35.5949 10.3691 35.7817C10.1808 35.9685 10.0744 36.2225 10.0734 36.4877V41.5444C10.0736 41.6759 10.0998 41.8061 10.1504 41.9274C10.2011 42.0488 10.2751 42.1589 10.3684 42.2516C10.4616 42.3443 10.5722 42.4178 10.6939 42.4677C10.8155 42.5176 10.9458 42.543 11.0773 42.5425H16.1282C16.2597 42.543 16.3899 42.5176 16.5116 42.4677C16.6332 42.4178 16.7439 42.3443 16.8371 42.2516C16.9303 42.1589 17.0044 42.0488 17.055 41.9274C17.1056 41.8061 17.1318 41.6759 17.1321 41.5444V36.4877C17.131 36.2225 17.0247 35.9685 16.8364 35.7817C16.6481 35.5949 16.3934 35.4906 16.1282 35.4916H11.0773ZM21.5384 35.6029C21.2746 35.6039 21.0218 35.7092 20.8352 35.8958C20.6486 36.0824 20.5433 36.3352 20.5423 36.599C20.5418 36.7304 20.5672 36.8605 20.6169 36.982C20.6667 37.1036 20.74 37.2141 20.8325 37.3073C20.9249 37.4005 21.0349 37.4746 21.156 37.5253C21.2772 37.5761 21.4071 37.6025 21.5384 37.603H29.0542C29.1855 37.6025 29.3155 37.5761 29.4366 37.5253C29.5577 37.4746 29.6677 37.4005 29.7602 37.3073C29.8527 37.2141 29.9259 37.1035 29.9757 36.982C30.0255 36.8605 30.0508 36.7304 30.0503 36.599C30.0493 36.3352 29.944 36.0824 29.7574 35.8958C29.5708 35.7092 29.3181 35.6039 29.0542 35.6029H21.5384ZM12.0754 37.4916H15.1301V40.5405H12.0754V37.4916ZM21.5384 40.4311C21.4071 40.4317 21.2772 40.458 21.156 40.5088C21.0349 40.5595 20.9249 40.6336 20.8325 40.7268C20.74 40.82 20.6667 40.9305 20.6169 41.0521C20.5672 41.1736 20.5418 41.3037 20.5423 41.4351C20.5433 41.6989 20.6486 41.9517 20.8352 42.1383C21.0218 42.3249 21.2746 42.4302 21.5384 42.4312H25.5385C25.6698 42.4317 25.8 42.4063 25.9215 42.3566C26.043 42.3068 26.1536 42.2335 26.2468 42.141C26.34 42.0485 26.4141 41.9386 26.4648 41.8175C26.5156 41.6963 26.5419 41.5664 26.5424 41.4351C26.5429 41.3031 26.5173 41.1723 26.4671 41.0503C26.4168 40.9282 26.3429 40.8174 26.2495 40.724C26.1562 40.6307 26.0453 40.5568 25.9233 40.5065C25.8013 40.4562 25.6705 40.4306 25.5385 40.4311H21.5384ZM37.4919 46.8903H56.5743C57.3334 46.8903 57.9532 47.5096 57.9532 48.3805V49.8805H36.111V48.3805C36.111 47.5096 36.7328 46.8903 37.4919 46.8903ZM11.0773 47.0016C10.9453 47.0011 10.8145 47.0267 10.6925 47.077C10.5705 47.1273 10.4596 47.2012 10.3663 47.2945C10.273 47.3878 10.199 47.4987 10.1488 47.6207C10.0985 47.7428 10.0729 47.8735 10.0734 48.0055V53.0544C10.0729 53.1864 10.0985 53.3172 10.1488 53.4392C10.199 53.5612 10.273 53.6721 10.3663 53.7654C10.4596 53.8588 10.5705 53.9327 10.6925 53.983C10.8145 54.0332 10.9453 54.0589 11.0773 54.0584H16.1282C16.2601 54.0589 16.3909 54.0332 16.513 53.983C16.635 53.9327 16.7458 53.8588 16.8392 53.7654C16.9325 53.6721 17.0064 53.5612 17.0567 53.4392C17.107 53.3172 17.1326 53.1864 17.1321 53.0544V48.0055C17.1326 47.8735 17.107 47.7428 17.0567 47.6207C17.0064 47.4987 16.9325 47.3878 16.8392 47.2945C16.7458 47.2012 16.635 47.1273 16.513 47.077C16.3909 47.0267 16.2601 47.0011 16.1282 47.0016H11.0773ZM21.5384 47.111C21.4071 47.1115 21.2772 47.1378 21.156 47.1886C21.0349 47.2393 20.9249 47.3134 20.8325 47.4066C20.74 47.4998 20.6667 47.6104 20.6169 47.7319C20.5672 47.8534 20.5418 47.9836 20.5423 48.1149C20.5433 48.3788 20.6486 48.6315 20.8352 48.8181C21.0218 49.0047 21.2746 49.11 21.5384 49.111H29.0542C29.3181 49.11 29.5709 49.0047 29.7575 48.8181C29.944 48.6315 30.0493 48.3787 30.0503 48.1148C30.0508 47.9835 30.0255 47.8533 29.9757 47.7318C29.9259 47.6103 29.8527 47.4998 29.7602 47.4065C29.6677 47.3133 29.5577 47.2392 29.4366 47.1885C29.3155 47.1378 29.1855 47.1114 29.0542 47.1109L21.5384 47.111ZM12.0754 49.0016H15.1301V52.0564H12.0754V49.0016ZM43.8631 51.8825H50.2031C49.8197 53.3061 48.5845 54.363 47.0331 54.3631C45.4816 54.363 44.2465 53.3061 43.8631 51.8825ZM21.5384 51.947C21.2746 51.948 21.0218 52.0533 20.8352 52.2399C20.6486 52.4265 20.5433 52.6792 20.5423 52.9431C20.5418 53.0744 20.5672 53.2046 20.6169 53.3261C20.6667 53.4476 20.74 53.5582 20.8325 53.6514C20.9249 53.7446 21.0349 53.8187 21.156 53.8694C21.2772 53.9201 21.4071 53.9465 21.5384 53.947H25.5385C25.6705 53.9475 25.8013 53.9219 25.9233 53.8717C26.0453 53.8214 26.1562 53.7475 26.2495 53.6541C26.3429 53.5608 26.4168 53.4499 26.4671 53.3279C26.5173 53.2059 26.5429 53.0751 26.5424 52.9431C26.5419 52.8118 26.5156 52.6818 26.4648 52.5607C26.4141 52.4396 26.34 52.3296 26.2468 52.2371C26.1536 52.1446 26.043 52.0714 25.9215 52.0216C25.8 51.9718 25.6698 51.9465 25.5385 51.947H21.5384Z" fill="#424241"/>
</svg>
