<svg width="28" height="28" viewBox="0 0 28 28" fill="none" xmlns="http://www.w3.org/2000/svg">
<path d="M23.8765 5.80943C23.3001 5.24117 22.6158 4.79038 21.8626 4.48283C21.1094 4.17527 20.302 4.01697 19.4867 4.01697C18.6714 4.01697 17.8641 4.17527 17.1109 4.48283C16.3577 4.79038 15.6734 5.24117 15.097 5.80943L13.9008 6.98823L12.7046 5.80943C11.5404 4.66212 9.96134 4.01756 8.31487 4.01756C6.66839 4.01756 5.08934 4.66212 3.92511 5.80943C2.76087 6.95675 2.10681 8.51285 2.10681 10.1354C2.10681 11.7579 2.76087 13.314 3.92511 14.4614L5.12129 15.6402L13.9008 24.2921L22.6803 15.6402L23.8765 14.4614C24.4531 13.8934 24.9106 13.219 25.2227 12.4767C25.5348 11.7344 25.6954 10.9389 25.6954 10.1354C25.6954 9.33194 25.5348 8.53635 25.2227 7.79409C24.9106 7.05183 24.4531 6.37743 23.8765 5.80943V5.80943Z" stroke="#E2E2EA" stroke-width="1.5" stroke-linecap="round" stroke-linejoin="round"/>
</svg>
