<svg width="64" height="65" viewBox="0 0 64 65" fill="none" xmlns="http://www.w3.org/2000/svg">
<path opacity="0.99" d="M15.5119 38.0709C14.9377 37.4967 14.0138 37.4967 13.4396 38.0709L10.9344 40.5762L23.6832 53.3257L26.1884 50.8203C26.7626 50.2461 26.7626 49.3222 26.1884 48.748L15.5119 38.0709Z" fill="black"/>
<path opacity="0.99" d="M10.2621 39.9039L5.4204 44.7209C4.72901 45.4087 4.72901 46.515 5.4204 47.2028L17.2009 58.9229C17.8923 59.6107 19.0051 59.6107 19.6964 58.9229L24.5008 54.1433L10.2621 39.9039Z" fill="black"/>
<path opacity="0.99" d="M35.1985 11.5388H44.8025C45.7829 11.5388 46.5721 12.328 46.5721 13.3083C46.5721 14.2886 45.7829 15.0779 44.8025 15.0779H35.1985C34.2182 15.0779 33.429 14.2886 33.429 13.3083C33.429 12.328 34.2182 11.5388 35.1985 11.5388Z" fill="black"/>
<path d="M33.0004 5.56348L35.9887 11.5382H44.0123L47.0007 5.56348H33.0004Z" fill="black"/>
<path opacity="0.99" d="M32.9848 4.56685C32.2423 4.56835 31.7602 5.34994 32.0923 6.01414L34.4146 10.6627C33.2669 11.0017 32.4087 12.0586 32.4087 13.3073C32.4087 13.8666 32.5815 14.3892 32.8735 14.8268C29.2606 17.8513 26.4428 23.2602 25.846 30.4189C25.8022 30.9689 26.2121 31.4505 26.7621 31.4951C27.3093 31.5402 27.7906 31.1357 27.8402 30.5888C28.4282 23.5357 31.3496 18.5422 34.6392 16.0534C38.1948 16.1054 41.7872 16.0531 45.3603 16.0621C48.275 18.3134 50.913 22.8578 51.8529 28.5067C51.9453 29.0507 52.4611 29.417 53.0052 29.3251C53.5515 29.2363 53.9218 28.7207 53.8314 28.1747C52.8729 22.4136 50.3326 17.5956 47.093 14.8267C47.385 14.3891 47.5578 13.8665 47.5578 13.3072C47.5578 12.0585 46.6996 11.0016 45.552 10.6626L47.8743 6.01407C48.2063 5.34988 47.7242 4.56825 46.9817 4.56677L32.9848 4.56685ZM34.6021 6.55907H45.364L43.3796 10.5377H36.5865L34.6021 6.55907ZM35.1399 12.5227L44.782 12.5397C45.2256 12.5405 45.5574 12.8637 45.5574 13.3073C45.5574 13.706 45.2813 13.9944 44.905 14.0515L35.1334 14.0707C34.6473 14.0707 34.4063 13.6997 34.4063 13.2871C34.423 12.8635 34.7118 12.5229 35.1399 12.5229V12.5227ZM38.9869 19.6707V20.3445C38.784 20.4139 38.5832 20.4965 38.3951 20.6082C37.5381 21.1169 36.9792 21.9932 36.8834 22.9852C36.7875 23.9772 37.1696 24.9524 37.9166 25.6122C38.4525 26.0856 39.0671 26.3043 39.821 26.5761C40.7236 26.9269 41.0947 27.2938 41.0905 27.915C41.1037 28.2421 40.8278 28.5958 40.5436 28.7646C40.2593 28.9334 39.8334 28.9668 39.5319 28.8388C39.2302 28.7108 38.9641 28.3878 38.8912 28.0712C38.769 27.5323 38.2328 27.1946 37.6939 27.3173C37.1557 27.4404 36.8191 27.9764 36.9419 28.5146C37.1656 29.4858 37.8333 30.2873 38.7506 30.6768C38.8272 30.7093 38.9087 30.719 38.9869 30.7451V31.4229C38.9849 31.9752 39.4307 32.4246 39.983 32.4268C40.5353 32.4246 40.9813 31.9752 40.9791 31.4229V30.7471C41.182 30.6777 41.3829 30.597 41.571 30.4853C42.4279 29.9766 42.9869 29.1003 43.0827 28.1083C43.1785 27.1163 42.7964 26.1469 42.0495 25.4872C41.7628 25.234 41.3624 25.0106 40.5569 24.7189C39.7514 24.4272 39.4367 24.2837 39.2447 24.1141C39.0005 23.8984 38.8442 23.5011 38.8756 23.1766C38.907 22.852 39.1382 22.4957 39.4225 22.3269C39.7068 22.1582 40.1327 22.1325 40.4342 22.2605C40.7358 22.3885 41.002 22.7115 41.0749 23.0281C41.2006 23.5639 41.7357 23.8974 42.2721 23.7742C42.8094 23.6511 43.1457 23.1165 43.0241 22.5789C42.8005 21.6077 42.1328 20.8042 41.2155 20.4148C41.1389 20.3823 41.0574 20.3725 40.9791 20.3464V19.6706C40.9781 19.1206 40.533 18.6747 39.983 18.6747C39.433 18.6748 38.988 19.1206 38.9869 19.6707L38.9869 19.6707ZM55.4853 29.6201L47.1726 35.9972C46.5657 34.9622 45.4515 34.2559 44.1687 34.2647L36.1587 34.3155C34.4151 34.3372 31.4754 32.8919 27.9125 32.6924C24.5447 32.5038 20.6199 33.4334 16.6095 37.7765L16.1974 37.3644C15.0733 36.2403 13.6444 36.4329 12.713 37.3644L10.9082 39.1691C10.464 38.7581 9.92977 38.8057 9.53907 39.1964L4.69718 44.009C3.62569 45.0749 3.62567 46.8475 4.69718 47.9134L16.4787 59.6285C17.5504 60.6945 19.3113 60.6946 20.383 59.6285L25.1898 54.853C25.7399 54.3029 25.5146 53.7598 25.0784 53.3237L26.8792 51.5228C27.7746 50.6274 27.8179 49.1883 27.0316 48.2259C27.657 47.4959 29.0354 46.3139 31.4633 46.3782C35.8777 46.4952 39.3847 46.7269 42.1979 46.6067C45.0111 46.4865 47.24 46.0045 48.7898 44.4582C53.3545 39.904 58.9111 34.3819 58.9111 34.3819C59.6964 33.5935 59.8613 33.2143 60.0138 32.6444C60.21 31.9678 60.1 31.1578 59.6553 30.4697C59.2155 29.7891 58.5107 29.3151 57.751 29.1415C56.9345 28.9251 56.161 29.1283 55.4853 29.6201L55.4853 29.6201ZM57.9465 32.6476C57.9465 32.6476 51.9289 38.4956 47.3718 43.0422C46.3623 44.0494 44.7363 44.5023 42.11 44.6145C39.4837 44.7267 35.9723 44.4962 31.516 44.3782C28.5536 44.2997 26.6389 45.7855 25.6604 46.8216L18.0372 39.2023C25.6061 30.8735 31.0298 36.3817 36.1821 36.3175L44.1842 36.2647C45.019 36.259 45.6589 36.9039 45.6589 37.7413C45.6589 38.5788 45.0195 39.2257 44.1764 39.2257H34.0395C33.4872 39.2279 33.0412 39.6774 33.0434 40.2297C33.0454 40.7789 33.4902 41.2236 34.0395 41.2258H44.1764C45.9408 41.2258 47.3964 39.8863 47.6159 38.1788L56.704 31.208C57.1317 30.8841 57.6269 31.0852 57.9164 31.4301C58.206 31.775 58.2937 32.3004 57.9463 32.6476H57.9465ZM14.7872 38.7746L25.4632 49.4564C25.6581 49.6513 25.6581 49.9178 25.4632 50.1127L23.6683 51.9154L12.3301 40.5754L14.131 38.7746C14.3851 38.5204 14.6848 38.6722 14.7872 38.7746ZM10.2402 41.3137L23.0533 54.1554L18.9729 58.2124C18.6618 58.5219 18.1999 58.5219 17.8888 58.2124L6.10736 46.4954C5.79607 46.1858 5.79607 45.7347 6.10736 45.4251L10.2402 41.3137ZM17.9982 54.0561C17.6558 54.5306 17.7634 55.193 18.2385 55.5346C18.7126 55.8757 19.3734 55.7682 19.715 55.2944C20.0565 54.8207 19.9499 54.16 19.4768 53.8178C18.9353 53.4713 18.3539 53.5798 17.9982 54.0561L17.9982 54.0561Z" fill="#424241"/>
</svg>
