<svg width="22" height="22" viewBox="0 0 24 24" fill="none" xmlns="http://www.w3.org/2000/svg">
<path d="M4.57971 20.3297V3.67037C4.57971 2.95084 5.37424 2.51725 5.97893 2.90397L19.0008 11.2337C19.561 11.5922 19.561 12.4079 19.0008 12.7665L5.97893 21.0962C5.37424 21.4829 4.57971 21.0493 4.57971 20.3297Z" fill="#313131"/>
<path d="M4.93124 20.3297C4.93124 20.0016 4.93124 19.6711 4.93124 19.343C4.93124 18.5063 4.93124 17.6696 4.93124 16.8329C4.93124 15.6961 4.93124 14.5594 4.93124 13.425C4.93124 12.2063 4.93124 10.9875 4.93124 9.76645C4.93124 8.67895 4.93124 7.59145 4.93124 6.50161C4.93124 5.75864 4.93124 5.01802 4.93124 4.27505C4.93124 4.10161 4.93124 3.92583 4.93124 3.75239C4.93124 3.72661 4.93124 3.69848 4.93124 3.6727C4.93124 3.66098 4.93124 3.6563 4.93124 3.63989C4.93124 3.6188 4.93358 3.60005 4.93593 3.57895C4.93124 3.65395 4.93358 3.59067 4.93827 3.56958C4.94999 3.52739 4.96171 3.4852 4.97343 3.44536C4.94999 3.51567 4.96639 3.45708 4.97811 3.43833C4.99452 3.4102 5.00858 3.38208 5.02733 3.35395C5.03671 3.33755 5.04843 3.32348 5.0578 3.30942C5.01561 3.36802 5.04374 3.32817 5.05546 3.31645C5.08827 3.28364 5.11874 3.25317 5.15389 3.2227C5.09764 3.27192 5.13983 3.23208 5.15858 3.22036C5.17733 3.20864 5.19608 3.19692 5.21718 3.1852C5.23358 3.17583 5.24999 3.1688 5.26639 3.15942C5.33436 3.12192 5.21483 3.17348 5.2828 3.15239C5.32733 3.14067 5.36952 3.12661 5.41405 3.11723C5.49374 3.09614 5.36718 3.1102 5.41639 3.11723C5.43749 3.11958 5.46327 3.11489 5.48436 3.11489C5.50311 3.11489 5.52186 3.11489 5.54061 3.11723C5.5453 3.11723 5.63202 3.13364 5.57811 3.11958C5.52186 3.10552 5.61327 3.12895 5.61561 3.12895C5.64374 3.13598 5.67186 3.14536 5.69764 3.15473C5.75858 3.17348 5.70936 3.15942 5.6953 3.15239C5.72343 3.16645 5.74921 3.18052 5.77499 3.19458C5.78436 3.19927 5.79374 3.2063 5.80077 3.21098C5.80311 3.21333 5.80546 3.21333 5.8078 3.21567C5.84061 3.23677 5.87577 3.25786 5.90858 3.27895C6.08436 3.39145 6.2578 3.50161 6.43358 3.61411C7.11561 4.05005 7.79999 4.48833 8.48202 4.92427C9.44296 5.54067 10.4062 6.15473 11.3672 6.77114C12.3867 7.4227 13.4062 8.07661 14.4281 8.72817C15.307 9.29067 16.1836 9.85083 17.0625 10.4133C17.5851 10.7485 18.1078 11.0836 18.6328 11.4165C18.6844 11.4493 18.7336 11.4821 18.7851 11.5125C18.7969 11.5196 18.8086 11.5266 18.8203 11.5336C18.8226 11.5336 18.825 11.536 18.825 11.536C18.8414 11.5477 18.8601 11.5594 18.8766 11.5711C18.8226 11.529 18.8742 11.5711 18.8859 11.5829C18.9094 11.6086 18.9328 11.6321 18.9562 11.6555C18.9703 11.6696 18.9844 11.7071 18.9539 11.6532C18.9633 11.6696 18.975 11.6836 18.9844 11.7C18.9984 11.7235 19.0101 11.7493 19.0242 11.775C19.0336 11.7938 19.0406 11.8336 19.0219 11.768C19.0359 11.8125 19.05 11.8547 19.0617 11.9016C19.0664 11.9204 19.0687 11.9368 19.0711 11.9555C19.057 11.8665 19.0687 11.9508 19.0687 11.9719C19.0687 11.9977 19.057 12.136 19.0711 12.0422C19.0641 12.0868 19.0547 12.1336 19.0406 12.1758C19.0359 12.1946 19.0289 12.211 19.0219 12.2274C19.0453 12.1547 19.0289 12.2133 19.0172 12.2321C19.0055 12.2532 18.9961 12.2743 18.982 12.293C18.975 12.3024 18.9211 12.3774 18.9703 12.3141C18.9398 12.3516 18.9047 12.3844 18.8695 12.4196C18.8601 12.429 18.818 12.4618 18.8695 12.4219C18.8508 12.436 18.8391 12.443 18.818 12.4571C18.8156 12.4571 18.8156 12.4594 18.8133 12.4594C18.8039 12.4665 18.7922 12.4735 18.7828 12.4782C18.3844 12.7336 17.9859 12.9868 17.5875 13.2422C16.7836 13.7555 15.9797 14.2711 15.1758 14.7844C14.1656 15.429 13.1578 16.0758 12.1476 16.7204C11.1562 17.3555 10.1625 17.9907 9.17108 18.6258C8.3953 19.1227 7.61952 19.6196 6.84374 20.1141C6.49686 20.3368 6.15233 20.5618 5.80311 20.7797C5.76561 20.8032 5.72811 20.8243 5.68827 20.8454C5.74686 20.8149 5.70468 20.8383 5.69061 20.843C5.66718 20.85 5.64374 20.8571 5.6203 20.8641C5.59686 20.8711 5.57343 20.8735 5.54999 20.8805C5.61327 20.8618 5.58514 20.8782 5.55936 20.8782C5.51249 20.8805 5.46796 20.8805 5.42108 20.8782C5.35546 20.8758 5.41874 20.8782 5.4328 20.8805C5.40702 20.8758 5.37889 20.8711 5.35311 20.8641C5.32968 20.8594 5.22889 20.8219 5.26639 20.8383C5.30389 20.8547 5.20546 20.8055 5.18671 20.7938C5.16796 20.7821 5.14921 20.7657 5.13046 20.7563C5.08593 20.7352 5.18436 20.8102 5.12577 20.7516C5.09296 20.7188 5.06014 20.6883 5.02968 20.6532C5.07889 20.7071 5.0203 20.6368 5.00389 20.6133C4.98983 20.5899 4.97811 20.5641 4.96405 20.5407C4.95468 20.5219 4.94999 20.4844 4.96639 20.5477C4.95468 20.5008 4.93827 20.4563 4.92655 20.4094C4.92186 20.3907 4.92421 20.3461 4.92655 20.4141C4.93358 20.3907 4.93124 20.3602 4.93124 20.3297C4.92889 20.1469 4.77186 19.9688 4.57968 19.9782C4.39218 19.9875 4.22577 20.1329 4.22811 20.3297C4.23514 20.7938 4.48827 21.2415 4.91249 21.45C5.31327 21.6469 5.77733 21.6352 6.15936 21.3985C6.24608 21.3446 6.3328 21.2883 6.41717 21.2321C6.98671 20.8688 7.55624 20.5032 8.12577 20.1399C9.04218 19.554 9.95858 18.968 10.875 18.3821C11.9133 17.7165 12.9539 17.0532 13.9922 16.3875C14.9391 15.7829 15.8859 15.1758 16.8328 14.5711C17.4703 14.1633 18.1101 13.7555 18.7476 13.3454C18.8812 13.261 19.0148 13.1743 19.1484 13.0899C19.275 13.0079 19.3945 12.9141 19.4883 12.7946C19.7953 12.4079 19.8516 11.8946 19.643 11.4469C19.514 11.1727 19.2844 10.9993 19.0406 10.8422C18.8531 10.7227 18.6633 10.6008 18.4758 10.4813C17.7609 10.0243 17.0461 9.56723 16.3336 9.1102C15.3492 8.47974 14.3625 7.84927 13.3781 7.2188C12.3422 6.55786 11.3086 5.89458 10.2726 5.23364C9.4078 4.68052 8.54296 4.12739 7.67811 3.57427C7.20468 3.27192 6.73358 2.96958 6.26014 2.66723C5.93905 2.46098 5.5828 2.35552 5.19843 2.44223C4.60546 2.57583 4.22811 3.12192 4.22577 3.71255C4.22577 4.16958 4.22577 4.62427 4.22577 5.0813C4.22577 6.0188 4.22577 6.9563 4.22577 7.8938C4.22577 9.08442 4.22577 10.2727 4.22577 11.4633C4.22577 12.6844 4.22577 13.9079 4.22577 15.129C4.22577 16.1625 4.22577 17.1961 4.22577 18.2321C4.22577 18.8508 4.22577 19.4672 4.22577 20.086C4.22577 20.168 4.22577 20.25 4.22577 20.3344C4.22577 20.5172 4.38749 20.6954 4.57733 20.686C4.76952 20.6719 4.93124 20.5266 4.93124 20.3297Z" fill="#313131"/>
</svg>
